<svg width="18" height="18" viewBox="0 0 18 18" fill="none" xmlns="http://www.w3.org/2000/svg">
<path d="M9 10.3125C8.6925 10.3125 8.4375 10.0575 8.4375 9.75V5.8125C8.4375 5.505 8.6925 5.25 9 5.25C9.3075 5.25 9.5625 5.505 9.5625 5.8125V9.75C9.5625 10.0575 9.3075 10.3125 9 10.3125Z" fill="#FF6C6F"/>
<path d="M9 12.9374C8.7975 12.9374 8.60998 12.8624 8.46748 12.7199C8.39998 12.6449 8.34751 12.5624 8.30251 12.4724C8.26501 12.3824 8.25 12.2849 8.25 12.1874C8.25 11.9924 8.33248 11.7974 8.46748 11.6549C8.74498 11.3774 9.25502 11.3774 9.53252 11.6549C9.66752 11.7974 9.75 11.9924 9.75 12.1874C9.75 12.2849 9.72749 12.3824 9.68999 12.4724C9.65249 12.5624 9.60002 12.6449 9.53252 12.7199C9.39002 12.8624 9.2025 12.9374 9 12.9374Z" fill="#FF6C6F"/>
<path d="M9.00014 17.0625C8.49764 17.0625 7.98763 16.9349 7.53763 16.6724L3.08263 14.0999C2.18263 13.5749 1.62012 12.6074 1.62012 11.5649V6.43496C1.62012 5.39246 2.18263 4.42496 3.08263 3.89996L7.53763 1.32747C8.43763 0.802466 9.55515 0.802466 10.4626 1.32747L14.9176 3.89996C15.8176 4.42496 16.3802 5.39246 16.3802 6.43496V11.5649C16.3802 12.6074 15.8176 13.5749 14.9176 14.0999L10.4626 16.6724C10.0126 16.9349 9.50264 17.0625 9.00014 17.0625ZM9.00014 2.06245C8.69264 2.06245 8.37763 2.14496 8.10013 2.30246L3.64513 4.87495C3.09013 5.19745 2.74512 5.78996 2.74512 6.43496V11.5649C2.74512 12.2024 3.09013 12.8025 3.64513 13.125L8.10013 15.6974C8.65513 16.0199 9.34514 16.0199 9.89264 15.6974L14.3476 13.125C14.9026 12.8025 15.2477 12.2099 15.2477 11.5649V6.43496C15.2477 5.79746 14.9026 5.19745 14.3476 4.87495L9.89264 2.30246C9.62264 2.14496 9.30764 2.06245 9.00014 2.06245Z" fill="#FF6C6F"/>
</svg>
